<?xml version="1.0" encoding="UTF-8"?> <svg xmlns="http://www.w3.org/2000/svg" width="163" height="162" viewBox="0 0 163 162" fill="none"><g opacity="0.3"><path d="M81.6575 118.8C102.527 118.8 119.445 101.876 119.445 80.9997C119.445 60.1233 102.527 43.1997 81.6575 43.1997C60.7881 43.1997 43.8702 60.1233 43.8702 80.9997C43.8702 101.876 60.7881 118.8 81.6575 118.8Z" stroke="#FFF9F2" stroke-width="2" stroke-miterlimit="10" stroke-linejoin="round"></path><path d="M102.648 48.4001C109.046 42.0001 119.243 42.0001 125.64 48.4001L114.244 59.8001L102.648 48.4001Z" stroke="#FFF9F2" stroke-width="2" stroke-miterlimit="10" stroke-linejoin="round"></path><path d="M60.4632 113.4C54.0653 119.8 43.8687 119.8 37.4709 113.4L48.8671 102L60.4632 113.4Z" stroke="#FFF9F2" stroke-width="2" stroke-miterlimit="10" stroke-linejoin="round"></path><path d="M114.044 102C120.442 108.4 120.442 118.6 114.044 125L102.648 113.6L114.044 102Z" stroke="#FFF9F2" stroke-width="2" stroke-miterlimit="10" stroke-linejoin="round"></path><path d="M49.0682 59.7996C42.6704 53.3996 42.6704 43.1996 49.0682 36.7996L60.4645 48.1996L49.0682 59.7996Z" stroke="#FFF9F2" stroke-width="2" stroke-miterlimit="10" stroke-linejoin="round"></path><path d="M119.445 72.7993H103.25C103.25 81.7993 110.448 88.9993 119.445 88.9993H135.639C135.639 79.9993 128.242 72.7993 119.445 72.7993Z" stroke="#FFF9F2" stroke-width="2" stroke-miterlimit="10" stroke-linejoin="round"></path><path d="M43.6693 72.7993H27.4747C27.4747 81.7993 34.6723 88.9993 43.6693 88.9993H59.8639C60.0639 79.9993 52.6663 72.7993 43.6693 72.7993Z" stroke="#FFF9F2" stroke-width="2" stroke-miterlimit="10" stroke-linejoin="round"></path><path d="M89.6535 118.8V102.6C80.6565 102.6 73.459 109.8 73.459 118.8V135C82.4559 135 89.6535 127.6 89.6535 118.8Z" stroke="#FFF9F2" stroke-width="2" stroke-miterlimit="10" stroke-linejoin="round"></path><path d="M89.6535 43.1998V26.9998C80.6565 26.9998 73.459 34.1998 73.459 43.1998V59.3998C82.4559 59.3998 89.6535 51.9998 89.6535 43.1998Z" stroke="#FFF9F2" stroke-width="2" stroke-miterlimit="10" stroke-linejoin="round"></path><path d="M81.6608 161C125.829 161 161.634 125.183 161.634 81C161.634 36.8172 125.829 1 81.6608 1C37.4928 1 1.6875 36.8172 1.6875 81C1.6875 125.183 37.4928 161 81.6608 161Z" stroke="#FFF9F2" stroke-width="2" stroke-miterlimit="10" stroke-linejoin="round"></path><path d="M89.6595 26.9998V1.7998" stroke="#FFF9F2" stroke-width="2" stroke-miterlimit="10" stroke-linejoin="round"></path><path d="M73.4614 135V160.4" stroke="#FFF9F2" stroke-width="2" stroke-miterlimit="10" stroke-linejoin="round"></path><path d="M135.644 88.9998H159.636" stroke="#FFF9F2" stroke-width="2" stroke-miterlimit="10" stroke-linejoin="round"></path><path d="M27.6786 72.7998H2.08716" stroke="#FFF9F2" stroke-width="2" stroke-miterlimit="10" stroke-linejoin="round"></path><path d="M135.644 88.9998H159.636" stroke="#FFF9F2" stroke-width="2" stroke-miterlimit="10" stroke-linejoin="round"></path><path d="M125.445 48.4001L143.639 30.4001" stroke="#FFF9F2" stroke-width="2" stroke-miterlimit="10" stroke-linejoin="round"></path><path d="M114.048 124.8L132.042 143" stroke="#FFF9F2" stroke-width="2" stroke-miterlimit="10" stroke-linejoin="round"></path><path d="M37.6731 113.4L19.4792 131.4" stroke="#FFF9F2" stroke-width="2" stroke-miterlimit="10" stroke-linejoin="round"></path><path d="M49.0729 36.9998L31.0789 18.7998" stroke="#FFF9F2" stroke-width="2" stroke-miterlimit="10" stroke-linejoin="round"></path></g></svg> 