<?xml version="1.0" encoding="UTF-8"?> <svg xmlns="http://www.w3.org/2000/svg" width="1442" height="960" viewBox="0 0 1442 960" fill="none"><path opacity="0.3" d="M318.346 489.896H463.013M318.346 489.896V634.62H463.013V489.896M318.346 489.896V668.742C318.346 748.752 383.034 813.466 463.013 813.466V489.896M1124.15 489.896H1268.82M1124.15 489.896V634.62H1268.82V489.896M1124.15 489.896V668.742C1124.15 748.752 1188.84 813.466 1268.82 813.466V489.896M808.367 469.15L663.699 469.15M808.367 469.15V324.426H663.699V469.15M808.367 469.15V290.304C808.367 210.294 743.678 145.58 663.699 145.58V469.15M145.673 145.718H290.34M145.673 145.718V290.442H290.34V145.718M145.673 145.718V324.564C145.673 404.573 210.361 469.287 290.34 469.287V145.718M951.48 145.718H1096.15M951.48 145.718V290.442H1096.15V145.718M951.48 145.718V324.564C951.48 404.573 1016.17 469.287 1096.15 469.287V145.718M981.04 813.328H836.372M981.04 813.328V668.604L836.372 668.604V813.328M981.04 813.328V634.482C981.04 554.473 916.351 489.759 836.372 489.759V813.328M318.346 345.178H463.013V489.902H318.346V345.178ZM635.192 636.509C555.213 636.509 490.525 571.795 490.525 491.785H635.192V636.509ZM318.34 634.62C238.362 634.62 173.673 569.671 173.673 489.896H318.34V634.62ZM1124.15 345.178H1268.82V489.902H1124.15V345.178ZM1441 636.509C1361.02 636.509 1296.33 571.795 1296.33 491.785H1441V636.509ZM1124.15 634.62C1044.17 634.62 979.481 569.671 979.481 489.896H1124.15V634.62ZM808.367 613.868L663.699 613.868V469.144H808.367V613.868ZM491.52 322.537C571.499 322.537 636.187 387.251 636.187 467.261H491.52L491.52 322.537ZM808.372 324.426C888.351 324.426 953.039 389.375 953.039 469.15H808.372V324.426ZM145.673 1H290.34V145.724H145.673V1ZM462.519 292.331C382.54 292.331 317.852 227.617 317.852 147.607H462.519V292.331ZM145.667 290.442C65.6886 290.442 1 225.493 1 145.718H145.667V290.442ZM951.48 1H1096.15V145.724H951.48V1ZM1268.33 292.331C1188.35 292.331 1123.66 227.617 1123.66 147.607H1268.33V292.331ZM951.475 290.442C871.497 290.442 806.808 225.493 806.808 145.718H951.475V290.442ZM981.04 958.046H836.372V813.322H981.04V958.046ZM664.193 666.716C744.172 666.716 808.861 731.429 808.861 811.439L664.193 811.439V666.716ZM981.045 668.604C1061.02 668.604 1125.71 733.553 1125.71 813.328H981.045V668.604Z" stroke="white" stroke-width="2" stroke-miterlimit="10"></path></svg> 