<?xml version="1.0" encoding="UTF-8"?> <svg xmlns="http://www.w3.org/2000/svg" width="144" height="46" viewBox="0 0 144 46" fill="none"><path d="M53.1771 10.9536V16.0533H61.1129V34.7963H67.3531V16.0533H75.289V10.9536H53.1771Z" fill="white"></path><path d="M75.9993 22.8749C75.9993 30.6569 80.6455 35.2599 88.8527 35.2599C97.026 35.2599 100.689 30.4582 100.689 23.471V21.7159H88.0049V26.3851H94.7538C94.6181 27.5938 93.465 30.3258 88.9884 30.3258C84.4439 30.3258 82.3073 27.6104 82.3073 22.8749C82.3073 18.1726 84.5796 15.391 89.0223 15.391C93.3633 15.391 94.3807 17.7753 94.6181 19.5303H100.282V19.0336C100.18 15.1923 96.9582 10.49 88.8527 10.49C80.6455 10.49 75.9993 15.093 75.9993 22.8749Z" fill="white"></path><path d="M103.545 10.9536V34.7963H109.718V25.2923H119.349V20.4244H109.718V15.8215H120.706V10.9536H103.545Z" fill="white"></path><path d="M135.42 10.9536H123.516V34.7963H135.725C140.253 34.7963 144 32.5114 144 28.074C144 23.9843 141.117 22.7756 139.557 22.4113V22.1464C140.846 21.8649 143.356 20.6397 143.356 16.848C143.356 12.7749 139.879 10.9536 135.42 10.9536ZM129.621 29.9284V25.193H134.742C136.607 25.193 137.929 25.7725 137.929 27.5607C137.929 29.3489 136.607 29.9284 134.742 29.9284H129.621ZM129.621 20.3251V15.8215H134.47C136.302 15.8215 137.489 16.3844 137.489 18.0733C137.489 19.7621 136.302 20.3251 134.47 20.3251H129.621Z" fill="white"></path><path fill-rule="evenodd" clip-rule="evenodd" d="M22.7785 45.5571C35.3588 45.5571 45.5571 35.3588 45.5571 22.7785C45.5571 10.1983 35.3588 0 22.7785 0C10.1983 0 0 10.1983 0 22.7785C0 35.3588 10.1983 45.5571 22.7785 45.5571ZM17.4293 8.71548H26.5391V17.8251V17.8258V26.9354V38.1937C21.5028 38.1937 17.4293 34.12 17.4293 29.0834V26.9354V17.8258V17.8251V8.71548ZM28.2721 17.944C28.2721 22.9806 32.3456 27.0543 37.3819 27.0543V17.944H28.2721ZM17.4293 26.9354C12.393 26.9354 8.31954 22.8469 8.31954 17.8251H17.4293V26.9354Z" fill="white"></path></svg> 