<?xml version="1.0" encoding="UTF-8"?> <svg xmlns="http://www.w3.org/2000/svg" width="32" height="32" viewBox="0 0 32 32" fill="none"><path fill-rule="evenodd" clip-rule="evenodd" d="M16 32C24.8366 32 32 24.8366 32 16C32 7.16344 24.8366 0 16 0C7.16344 0 0 7.16344 0 16C0 24.8366 7.16344 32 16 32ZM12.2427 6.12189H18.6416V12.5206V12.5211V18.9199V26.8279C15.104 26.8279 12.2427 23.9664 12.2427 20.4286V18.9199V12.5211V12.5206V6.12189ZM19.8587 12.6041C19.8587 16.1419 22.7199 19.0034 26.2575 19.0034V12.6041H19.8587ZM12.2426 18.9199C8.70501 18.9199 5.84375 16.048 5.84375 12.5206H12.2426V18.9199Z" fill="#E55108"></path></svg> 